<svg xmlns="http://www.w3.org/2000/svg" viewBox="0 0 128 128" role="img" aria-label="Student Organization logo">
  <defs>
    <radialGradient id="bg" cx="35%" cy="25%" r="85%">
      <stop offset="0" stop-color="#ff8cc3"/>
      <stop offset="0.58" stop-color="#dd4d9d"/>
      <stop offset="1" stop-color="#831c91"/>
    </radialGradient>
    <filter id="shadow" x="-20%" y="-20%" width="140%" height="140%">
      <feDropShadow dx="0" dy="5" stdDeviation="3" flood-color="#111827" flood-opacity=".35"/>
    </filter>
  </defs>
  <rect width="128" height="128" rx="26" fill="url(#bg)"/>
  <path d="M18 67 37 57l-7-22 20 12 14-20 8 24 25-8-13 22 24 13-27 4 4 25-21-16-22 16 7-25-31-15Z" fill="#fff" stroke="#111827" stroke-width="5" stroke-linejoin="round" filter="url(#shadow)"/>
  <path d="M20 28 35 43M98 27 84 44M18 100l22-17M109 98 91 83" stroke="#111827" stroke-width="6" stroke-linecap="round"/>
  <text x="64" y="66" text-anchor="middle" font-family="Arial Black, Impact, system-ui, sans-serif" font-size="22" font-weight="900" fill="#ffe933" stroke="#111827" stroke-width="4" paint-order="stroke" transform="rotate(-7 64 66)">STUDENT</text>
  <text x="64" y="88" text-anchor="middle" font-family="Arial Black, Impact, system-ui, sans-serif" font-size="18" font-weight="900" fill="#ffe933" stroke="#111827" stroke-width="3.5" paint-order="stroke" transform="rotate(-7 64 88)">ORG</text>
</svg>
